<?xml version="1.0" encoding="UTF-8" ?>
<!DOCTYPE svg PUBLIC "-//W3C//DTD SVG 1.1//EN" "http://www.w3.org/Graphics/SVG/1.1/DTD/svg11.dtd">
<svg width="383pt" height="383pt" viewBox="0 0 383 383" version="1.1" xmlns="http://www.w3.org/2000/svg">
<g id="#40edacff">
<path fill="#40edac" opacity="1.00" d=" M 282.13 46.24 C 314.44 46.08 346.77 46.37 379.09 46.30 C 380.39 46.26 381.68 46.38 382.97 46.66 C 374.06 70.58 365.47 94.62 356.36 118.46 C 356.02 118.53 355.36 118.67 355.03 118.73 C 321.83 118.77 288.63 118.85 255.43 118.89 C 255.68 116.85 256.36 114.91 257.18 113.03 C 260.40 104.24 263.51 95.39 266.77 86.62 C 267.87 83.98 268.44 81.11 269.79 78.60 C 272.28 71.20 275.01 63.86 277.79 56.57 C 279.12 53.13 279.72 49.04 282.13 46.24 Z" />
<path fill="#40edac" opacity="1.00" d=" M 244.32 147.18 C 278.26 147.23 312.20 147.14 346.15 147.24 C 334.04 179.32 323.42 212.01 309.18 243.26 C 301.36 261.38 291.23 278.61 278.09 293.40 C 275.01 289.92 272.32 286.12 269.54 282.40 C 259.72 269.24 249.83 256.12 239.98 242.99 C 232.69 233.69 226.23 223.78 218.79 214.60 C 224.23 205.90 226.89 195.93 230.48 186.41 C 234.94 173.28 240.10 160.39 244.32 147.18 Z" />
</g>
<g id="#3bf4c6ff">
<path fill="#3bf4c6" opacity="1.00" d=" M 181.50 253.47 C 197.67 244.78 209.10 229.79 218.79 214.60 C 226.23 223.78 232.69 233.69 239.98 242.99 C 249.83 256.12 259.72 269.24 269.54 282.40 C 272.32 286.12 275.01 289.92 278.09 293.40 C 264.68 307.83 247.47 318.72 228.58 324.36 C 211.60 329.65 193.70 330.48 176.05 330.83 C 117.37 330.87 58.68 330.85 0.00 330.88 L 0.00 329.89 C 15.87 304.55 32.16 279.01 54.08 258.37 C 90.07 258.49 126.06 258.38 162.05 258.44 C 168.84 258.57 175.52 256.60 181.50 253.47 Z" />
</g>
</svg>
