<?xml version="1.0" encoding="UTF-8" ?>
<!DOCTYPE svg PUBLIC "-//W3C//DTD SVG 1.1//EN" "http://www.w3.org/Graphics/SVG/1.1/DTD/svg11.dtd">
<svg width="1104pt" height="237pt" viewBox="0 0 1104 237" version="1.1" xmlns="http://www.w3.org/2000/svg">
<g id="#26a59aff">
<path fill="#26a59a" opacity="1.00" d=" M 311.17 39.00 C 329.38 39.00 347.60 39.00 365.81 39.00 C 368.48 41.74 371.11 44.51 373.79 47.25 C 371.14 49.89 368.54 52.59 365.92 55.25 C 347.64 55.24 329.36 55.25 311.08 55.25 C 308.50 52.65 306.00 49.96 303.32 47.47 C 306.20 44.90 308.61 41.87 311.17 39.00 Z" />
<path fill="#26a59a" opacity="1.00" d=" M 415.48 47.44 C 418.49 44.78 421.09 41.71 423.78 38.74 C 441.93 38.76 460.07 38.76 478.22 38.74 C 480.73 41.67 483.48 44.37 485.99 47.30 C 483.32 49.87 480.79 52.58 478.24 55.27 C 459.90 55.22 441.56 55.26 423.22 55.25 C 420.67 52.61 418.15 49.95 415.48 47.44 Z" />
<path fill="#26a59a" opacity="1.00" d=" M 513.49 39.16 C 516.19 41.97 519.17 44.49 522.01 47.18 C 522.00 67.11 522.00 87.05 522.01 106.99 C 519.22 109.67 516.23 112.14 513.46 114.83 C 510.97 112.16 508.17 109.81 505.48 107.34 C 505.52 87.11 505.51 66.88 505.48 46.65 C 508.18 44.18 510.96 41.80 513.49 39.16 Z" />
<path fill="#26a59a" opacity="1.00" d=" M 583.01 39.00 C 586.92 39.00 590.84 38.99 594.76 39.01 C 594.74 42.60 594.74 46.19 594.76 49.78 C 575.69 68.64 556.68 87.56 537.69 106.51 C 534.12 106.49 530.56 106.50 527.00 106.50 C 527.00 102.67 527.00 98.84 527.00 95.02 C 545.66 76.33 564.33 57.66 583.01 39.00 Z" />
<path fill="#26a59a" opacity="1.00" d=" M 617.51 39.00 C 621.39 38.99 625.28 39.03 629.17 38.95 C 639.12 59.34 648.83 79.86 658.73 100.27 C 661.91 104.80 660.41 110.43 660.79 115.58 C 657.09 115.46 653.39 115.49 649.70 115.50 C 639.30 93.88 628.69 72.34 618.25 50.74 C 617.11 46.97 617.85 42.89 617.51 39.00 Z" />
<path fill="#26a59a" opacity="1.00" d=" M 698.84 38.95 C 702.55 39.03 706.27 39.00 710.00 39.00 C 709.75 42.87 710.57 46.89 709.54 50.65 C 699.18 72.29 688.63 93.84 678.30 115.50 C 674.60 115.49 670.90 115.46 667.21 115.58 C 667.58 111.68 666.92 107.63 667.86 103.82 C 678.15 82.19 688.42 60.53 698.84 38.95 Z" />
<path fill="#26a59a" opacity="1.00" d=" M 849.00 39.00 C 870.95 39.00 892.89 39.00 914.83 39.00 C 917.40 41.78 919.92 44.62 922.55 47.36 C 919.91 49.93 917.34 52.58 914.80 55.24 C 892.78 55.27 870.77 55.22 848.76 55.27 C 846.26 52.63 843.80 49.96 841.15 47.47 C 843.91 44.78 846.32 41.76 849.00 39.00 Z" />
<path fill="#26a59a" opacity="1.00" d=" M 257.74 46.76 C 260.46 44.30 263.14 41.78 265.76 39.20 C 268.59 41.82 271.35 44.52 274.20 47.12 C 274.31 67.06 274.22 86.99 274.25 106.93 C 271.43 109.57 268.61 112.20 265.77 114.81 C 263.15 112.22 260.47 109.69 257.74 107.23 C 257.76 87.08 257.77 66.92 257.74 46.76 Z" />
<path fill="#26a59a" opacity="1.00" d=" M 806.31 46.60 C 808.93 44.18 811.44 41.66 814.00 39.18 C 816.90 41.89 819.76 44.64 822.76 47.24 C 822.68 67.09 822.86 86.96 822.67 106.81 C 820.10 109.76 816.72 111.98 814.00 114.82 C 811.45 112.35 808.97 109.82 806.33 107.45 C 806.18 87.17 806.22 66.88 806.31 46.60 Z" />
<path fill="#26a59a" opacity="1.00" d=" M 292.57 58.89 C 294.88 56.09 298.14 54.17 300.46 51.32 C 303.01 54.44 306.74 56.63 308.91 59.96 C 309.13 75.63 308.93 91.32 309.00 107.00 C 306.23 109.67 303.23 112.09 300.52 114.84 C 297.96 112.19 295.16 109.80 292.47 107.31 C 292.60 91.17 292.38 75.02 292.57 58.89 Z" />
<path fill="#26a59a" opacity="1.00" d=" M 369.48 58.66 C 372.11 56.26 374.77 53.89 377.36 51.44 C 380.09 54.19 382.88 56.87 385.75 59.47 C 385.77 73.99 385.71 88.50 385.77 103.02 C 385.65 104.42 386.04 105.96 385.43 107.26 C 382.79 109.87 379.83 112.12 377.24 114.79 C 374.68 112.28 372.08 109.80 369.48 107.33 C 369.51 91.11 369.52 74.88 369.48 58.66 Z" />
<path fill="#26a59a" opacity="1.00" d=" M 404.74 58.76 C 407.40 56.35 410.06 53.93 412.55 51.32 C 415.21 54.35 418.44 56.78 421.35 59.57 C 421.11 75.35 421.31 91.14 421.25 106.93 C 418.39 109.63 415.36 112.14 412.50 114.84 C 410.04 112.18 407.36 109.73 404.73 107.24 C 404.77 91.08 404.76 74.92 404.74 58.76 Z" />
<path fill="#26a59a" opacity="1.00" d=" M 903.38 59.44 C 907.13 59.52 910.89 59.60 914.65 59.35 C 914.32 64.08 914.93 68.83 914.63 73.55 C 908.15 86.11 901.32 98.51 894.75 111.03 C 891.07 112.20 887.40 113.41 883.70 114.50 C 882.42 111.23 881.07 108.00 879.75 104.76 C 887.58 89.63 895.74 74.67 903.38 59.44 Z" />
<path fill="#26a59a" opacity="1.00" d=" M 303.46 118.98 C 306.23 116.23 308.56 112.84 311.68 110.56 C 329.69 110.42 347.71 110.55 365.72 110.50 C 368.37 113.29 371.07 116.04 373.80 118.76 C 371.06 121.30 368.82 124.40 365.85 126.67 C 347.64 126.80 329.39 126.80 311.18 126.67 C 308.26 124.51 306.10 121.47 303.46 118.98 Z" />
<path fill="#26a59a" opacity="1.00" d=" M 516.47 119.00 C 519.12 116.13 521.84 113.31 524.50 110.44 C 542.67 110.59 560.84 110.45 579.02 110.51 C 581.53 113.33 584.14 116.08 586.80 118.76 C 584.07 121.31 581.82 124.37 578.88 126.67 C 560.66 126.81 542.42 126.80 524.20 126.67 C 521.26 124.55 519.11 121.47 516.47 119.00 Z" />
<path fill="#26a59a" opacity="1.00" d=" M 870.23 122.51 C 873.93 121.47 877.61 120.35 881.30 119.26 C 882.55 122.68 883.83 126.08 885.30 129.42 C 877.65 145.19 869.88 160.90 862.33 176.72 C 858.27 176.77 854.21 176.69 850.16 176.84 C 850.51 172.13 849.85 167.35 850.49 162.68 C 856.93 149.23 863.71 135.93 870.23 122.51 Z" />
<path fill="#26a59a" opacity="1.00" d=" M 618.24 186.29 C 628.71 164.76 639.26 143.27 649.74 121.74 C 653.41 121.76 657.08 121.77 660.75 121.71 C 660.44 125.74 661.42 129.97 660.20 133.86 C 649.91 155.34 639.56 176.79 629.25 198.26 C 625.32 198.24 621.39 198.20 617.47 198.33 C 617.87 194.33 617.10 190.16 618.24 186.29 Z" />
<path fill="#26a59a" opacity="1.00" d=" M 667.24 121.71 C 670.91 121.77 674.58 121.76 678.25 121.74 C 688.67 143.31 699.17 164.83 709.57 186.40 C 710.55 190.23 709.75 194.32 710.00 198.25 C 706.24 198.25 702.49 198.24 698.75 198.26 C 688.53 176.78 678.24 155.34 668.05 133.86 C 666.82 129.97 667.62 125.74 667.24 121.71 Z" />
<path fill="#26a59a" opacity="1.00" d=" M 181.33 130.11 C 183.56 127.26 186.51 125.07 189.01 122.46 C 191.88 125.11 194.69 127.83 197.55 130.49 C 197.46 146.17 197.47 161.85 197.55 177.52 C 194.67 180.16 191.87 182.88 189.01 185.53 C 186.52 182.90 183.53 180.73 181.33 177.85 C 181.20 161.94 181.19 146.01 181.33 130.11 Z" />
<path fill="#26a59a" opacity="1.00" d=" M 265.58 122.45 C 268.49 125.12 271.43 127.77 274.31 130.48 C 274.21 146.15 274.20 161.83 274.31 177.50 C 271.44 180.21 268.48 182.82 265.64 185.56 C 263.07 182.95 260.40 180.45 257.75 177.92 C 257.76 161.97 257.75 146.02 257.75 130.07 C 260.37 127.54 263.06 125.08 265.58 122.45 Z" />
<path fill="#26a59a" opacity="1.00" d=" M 292.51 129.98 C 295.26 127.50 297.99 125.00 300.55 122.32 C 302.98 125.51 306.75 127.62 308.91 130.94 C 309.13 150.68 308.93 170.43 309.01 190.17 C 306.14 192.94 303.18 195.61 300.45 198.52 C 298.00 195.70 295.27 193.15 292.51 190.65 C 292.50 170.43 292.50 150.20 292.51 129.98 Z" />
<path fill="#26a59a" opacity="1.00" d=" M 369.51 129.97 C 372.13 127.49 374.80 125.06 377.26 122.42 C 380.08 125.10 382.83 127.86 385.74 130.45 C 385.72 150.44 385.82 170.42 385.69 190.40 C 382.77 192.94 380.19 195.84 377.09 198.17 C 374.63 195.59 372.13 193.05 369.50 190.65 C 369.50 170.42 369.50 150.19 369.51 129.97 Z" />
<path fill="#26a59a" opacity="1.00" d=" M 404.75 130.08 C 407.35 127.50 410.04 125.01 412.52 122.32 C 415.20 125.26 418.28 127.78 421.27 130.38 C 421.23 146.13 421.24 161.88 421.27 177.64 C 418.23 180.20 415.19 182.78 412.46 185.68 C 410.05 182.93 407.33 180.49 404.75 177.92 C 404.76 161.97 404.75 146.02 404.75 130.08 Z" />
<path fill="#26a59a" opacity="1.00" d=" M 505.51 129.98 C 508.26 127.50 510.99 125.00 513.54 122.32 C 516.00 125.49 519.69 127.62 521.92 130.90 C 522.12 150.65 521.93 170.41 522.01 190.16 C 519.19 192.94 516.17 195.52 513.56 198.51 C 511.09 195.60 507.81 193.27 505.56 190.26 C 505.42 170.17 505.54 150.07 505.51 129.98 Z" />
<path fill="#26a59a" opacity="1.00" d=" M 582.33 130.19 C 584.47 127.26 587.53 125.10 590.02 122.45 C 592.96 125.09 595.80 127.85 598.75 130.48 C 598.70 150.46 598.83 170.44 598.68 190.42 C 595.77 192.99 592.91 195.61 589.98 198.15 C 587.41 195.60 584.88 193.01 582.25 190.52 C 582.30 170.41 582.14 150.29 582.33 130.19 Z" />
<path fill="#26a59a" opacity="1.00" d=" M 729.51 129.98 C 732.23 127.50 735.01 125.07 737.45 122.32 C 740.02 125.17 743.05 127.56 745.71 130.33 C 746.22 131.83 745.93 133.48 746.02 135.05 C 745.89 149.27 746.17 163.49 745.88 177.71 C 742.96 180.21 740.11 182.81 737.54 185.68 C 735.00 182.98 732.26 180.49 729.51 178.02 C 729.50 162.00 729.50 145.99 729.51 129.98 Z" />
<path fill="#26a59a" opacity="1.00" d=" M 806.33 130.18 C 808.48 127.26 811.53 125.10 814.01 122.45 C 816.96 125.09 819.80 127.85 822.75 130.48 C 822.74 146.17 822.76 161.85 822.74 177.54 C 819.77 180.14 816.95 182.90 814.01 185.54 C 811.54 182.88 808.43 180.73 806.33 177.78 C 806.20 161.92 806.20 146.04 806.33 130.18 Z" />
<path fill="#26a59a" opacity="1.00" d=" M 199.36 181.50 C 217.80 181.52 236.24 181.48 254.68 181.52 C 257.15 184.33 259.80 186.98 262.51 189.55 C 259.68 192.12 257.15 194.99 254.67 197.89 C 236.45 198.15 218.23 197.93 200.01 198.00 C 197.26 195.19 194.59 192.31 191.88 189.47 C 194.44 186.88 196.97 184.25 199.36 181.50 Z" />
<path fill="#26a59a" opacity="1.00" d=" M 415.49 189.55 C 418.20 186.97 420.74 184.22 423.29 181.49 C 441.64 181.51 459.98 181.52 478.33 181.48 C 480.90 184.20 483.52 186.86 486.07 189.59 C 483.41 192.38 480.82 195.22 478.17 198.01 C 460.06 198.00 441.96 197.99 423.85 198.01 C 421.04 195.21 418.46 192.18 415.49 189.55 Z" />
<path fill="#26a59a" opacity="1.00" d=" M 740.32 189.46 C 743.03 187.06 745.29 184.22 747.65 181.48 C 766.00 181.52 784.36 181.51 802.71 181.49 C 805.38 184.20 808.00 186.96 810.86 189.49 C 808.02 192.18 805.51 195.17 802.83 198.01 C 784.85 197.93 766.86 198.12 748.89 197.92 C 745.62 195.64 743.41 192.02 740.32 189.46 Z" />
<path fill="#26a59a" opacity="1.00" d=" M 841.16 189.52 C 843.80 186.97 846.19 184.18 848.68 181.47 C 870.69 181.54 892.71 181.49 914.73 181.50 C 917.32 184.20 919.84 186.99 922.68 189.45 C 919.88 192.13 917.40 195.11 914.83 198.01 C 892.89 197.99 870.95 198.00 849.01 198.01 C 846.31 195.25 843.89 192.24 841.16 189.52 Z" />
</g>
</svg>
