<?xml version="1.0" encoding="UTF-8" ?>
<!DOCTYPE svg PUBLIC "-//W3C//DTD SVG 1.1//EN" "http://www.w3.org/Graphics/SVG/1.1/DTD/svg11.dtd">
<svg width="746pt" height="163pt" viewBox="0 0 746 163" version="1.1" xmlns="http://www.w3.org/2000/svg">
<g id="#26a59aff">
<path fill="#26a59a" opacity="1.00" d=" M 132.18 1.99 C 150.39 2.01 168.60 2.00 186.81 2.00 C 189.48 4.74 192.11 7.52 194.79 10.25 C 192.13 12.89 189.54 15.59 186.91 18.26 C 168.63 18.24 150.36 18.25 132.09 18.25 C 129.45 15.66 126.90 12.96 124.14 10.49 C 126.99 7.82 129.49 4.81 132.18 1.99 Z" />
<path fill="#26a59a" opacity="1.00" d=" M 236.48 10.50 C 239.35 7.68 242.13 4.77 244.80 1.74 C 262.93 1.75 281.06 1.76 299.20 1.74 C 301.81 4.56 304.38 7.42 306.97 10.26 C 304.38 12.92 301.79 15.59 299.20 18.26 C 280.86 18.23 262.52 18.27 244.18 18.24 C 241.72 15.55 239.14 12.98 236.48 10.50 Z" />
<path fill="#26a59a" opacity="1.00" d=" M 404.06 2.00 C 407.95 2.00 411.86 2.00 415.76 2.01 C 415.74 5.58 415.73 9.16 415.75 12.73 C 396.69 31.61 377.62 50.47 358.70 69.49 C 355.13 69.50 351.57 69.50 348.00 69.50 C 348.00 65.66 348.00 61.82 348.00 57.98 C 366.66 39.29 385.33 20.62 404.06 2.00 Z" />
<path fill="#26a59a" opacity="1.00" d=" M 438.54 2.00 C 442.41 2.00 446.28 2.00 450.16 2.00 C 460.35 23.10 470.44 44.26 480.76 65.30 C 482.44 69.49 481.51 74.13 481.70 78.51 C 478.03 78.49 474.36 78.50 470.70 78.50 C 460.56 57.54 450.46 36.56 440.17 15.68 C 437.92 11.48 438.76 6.56 438.54 2.00 Z" />
<path fill="#26a59a" opacity="1.00" d=" M 519.85 2.00 C 523.54 2.00 527.24 2.00 530.94 2.00 C 530.81 6.54 531.87 11.45 529.63 15.65 C 519.54 36.61 509.44 57.57 499.28 78.50 C 495.61 78.50 491.94 78.49 488.27 78.52 C 488.55 73.92 487.59 68.99 489.81 64.73 C 499.85 43.84 509.83 22.91 519.85 2.00 Z" />
<path fill="#26a59a" opacity="1.00" d=" M 662.15 10.49 C 664.77 7.67 667.42 4.86 670.00 2.01 C 691.94 1.99 713.87 2.01 735.80 2.00 C 738.30 4.81 740.88 7.56 743.53 10.24 C 740.92 12.88 738.35 15.55 735.80 18.25 C 713.79 18.26 691.78 18.24 669.77 18.26 C 667.30 15.59 664.78 12.99 662.15 10.49 Z" />
<path fill="#26a59a" opacity="1.00" d=" M 78.73 9.78 C 81.39 7.26 84.08 4.76 86.74 2.24 C 89.49 4.91 92.31 7.51 95.20 10.03 C 95.24 30.00 95.24 49.98 95.25 69.96 C 92.54 72.68 89.65 75.22 86.75 77.75 C 84.09 75.22 81.39 72.74 78.73 70.21 C 78.76 50.07 78.76 29.92 78.73 9.78 Z" />
<path fill="#26a59a" opacity="1.00" d=" M 326.50 9.74 C 329.18 7.27 331.83 4.78 334.46 2.25 C 337.31 4.92 340.12 7.62 343.00 10.25 C 343.00 30.17 343.00 50.09 342.99 70.01 C 340.18 72.63 337.35 75.22 334.47 77.76 C 331.83 75.25 329.21 72.72 326.51 70.29 C 326.47 50.11 326.48 29.93 326.50 9.74 Z" />
<path fill="#26a59a" opacity="1.00" d=" M 627.33 9.43 C 629.97 7.14 632.53 4.75 635.00 2.27 C 637.89 4.96 640.85 7.59 643.76 10.27 C 643.77 30.10 643.71 49.92 643.68 69.74 C 640.87 72.50 637.85 75.04 634.98 77.73 C 632.38 75.37 629.83 72.98 627.34 70.52 C 627.21 50.16 627.18 29.80 627.33 9.43 Z" />
<path fill="#26a59a" opacity="1.00" d=" M 121.50 14.15 C 124.30 17.16 127.39 19.89 130.00 23.07 C 130.00 38.71 130.00 54.35 130.00 69.99 C 127.23 72.67 124.23 75.10 121.51 77.84 C 118.97 75.20 116.20 72.81 113.49 70.36 C 113.52 54.24 113.48 38.13 113.51 22.02 C 116.13 19.35 118.84 16.78 121.50 14.15 Z" />
<path fill="#26a59a" opacity="1.00" d=" M 190.48 21.66 C 193.10 19.28 195.71 16.89 198.30 14.47 C 201.05 17.21 203.92 19.83 206.76 22.47 C 206.74 37.33 206.74 52.19 206.77 67.04 C 206.64 68.26 207.00 69.80 205.91 70.69 C 203.40 73.13 200.70 75.36 198.25 77.85 C 195.72 75.26 193.05 72.80 190.45 70.29 C 190.55 54.08 190.49 37.87 190.48 21.66 Z" />
<path fill="#26a59a" opacity="1.00" d=" M 225.73 21.79 C 228.33 19.29 230.94 16.81 233.51 14.28 C 236.17 17.38 239.65 19.67 242.28 22.76 C 242.33 38.50 242.14 54.24 242.25 69.97 C 239.41 72.66 236.45 75.22 233.49 77.76 C 230.91 75.22 228.30 72.71 225.71 70.19 C 225.77 54.06 225.76 37.92 225.73 21.79 Z" />
<path fill="#26a59a" opacity="1.00" d=" M 724.38 22.50 C 728.16 22.48 731.94 22.64 735.71 22.29 C 734.99 27.01 736.25 31.77 735.57 36.48 C 729.16 49.09 722.35 61.51 715.75 74.02 C 712.08 75.21 708.39 76.36 704.71 77.49 C 703.40 74.24 702.06 71.00 700.73 67.76 C 708.73 52.73 716.50 37.59 724.38 22.50 Z" />
<path fill="#26a59a" opacity="1.00" d=" M 124.49 81.99 C 127.04 78.98 129.68 76.03 132.71 73.48 C 150.72 73.52 168.73 73.48 186.75 73.51 C 189.33 76.33 192.00 79.09 194.78 81.72 C 192.15 84.43 189.55 87.18 186.80 89.77 C 168.60 89.74 150.39 89.73 132.18 89.78 C 129.39 87.42 126.97 84.67 124.49 81.99 Z" />
<path fill="#26a59a" opacity="1.00" d=" M 345.37 73.57 C 363.58 73.40 381.80 73.55 400.02 73.50 C 402.51 76.33 405.10 79.07 407.77 81.74 C 405.15 84.44 402.57 87.19 399.82 89.77 C 381.61 89.74 363.40 89.72 345.19 89.78 C 342.39 87.42 339.97 84.67 337.49 81.99 C 340.10 79.17 342.81 76.44 345.37 73.57 Z" />
<path fill="#26a59a" opacity="1.00" d=" M 691.28 85.49 C 694.95 84.43 698.61 83.33 702.29 82.28 C 703.54 85.72 704.94 89.10 706.27 92.51 C 698.52 108.21 690.98 124.00 683.27 139.72 C 679.26 139.77 675.25 139.75 671.25 139.75 C 671.70 134.10 669.99 127.96 672.86 122.75 C 679.10 110.38 685.01 97.85 691.28 85.49 Z" />
<path fill="#26a59a" opacity="1.00" d=" M 440.19 147.23 C 450.42 126.42 460.52 105.55 470.76 84.75 C 474.41 84.75 478.06 84.75 481.72 84.76 C 481.54 89.30 482.59 94.19 480.42 98.42 C 470.33 119.35 460.32 140.32 450.24 161.25 C 446.32 161.25 442.41 161.25 438.50 161.25 C 438.78 156.57 437.91 151.54 440.19 147.23 Z" />
<path fill="#26a59a" opacity="1.00" d=" M 488.28 84.75 C 491.93 84.75 495.58 84.75 499.24 84.75 C 509.53 105.84 519.71 126.98 529.90 148.12 C 531.81 152.22 530.79 156.89 530.93 161.25 C 527.20 161.25 523.48 161.25 519.76 161.25 C 510.27 141.41 500.84 121.54 491.39 101.68 C 488.07 96.63 488.16 90.55 488.28 84.75 Z" />
<path fill="#26a59a" opacity="1.00" d=" M 2.41 93.19 C 4.40 90.16 7.60 88.17 10.05 85.54 C 12.75 88.17 15.63 90.61 18.25 93.32 C 18.84 94.79 18.44 96.47 18.55 98.03 C 18.46 112.15 18.43 126.27 18.58 140.39 C 15.78 143.13 12.88 145.76 10.04 148.46 C 7.40 145.94 4.67 143.51 2.29 140.73 C 2.30 124.88 2.09 109.03 2.41 93.19 Z" />
<path fill="#26a59a" opacity="1.00" d=" M 78.75 93.00 C 81.34 90.48 83.98 88.00 86.61 85.50 C 89.40 88.33 92.74 90.68 95.24 93.77 C 95.28 109.37 95.21 124.99 95.25 140.59 C 92.32 143.16 89.51 145.87 86.64 148.51 C 84.03 145.98 81.38 143.50 78.75 141.00 C 78.75 125.00 78.75 109.00 78.75 93.00 Z" />
<path fill="#26a59a" opacity="1.00" d=" M 113.54 92.93 C 116.31 90.51 118.94 87.94 121.49 85.29 C 124.07 88.42 127.87 90.52 129.82 94.14 C 130.13 113.81 129.91 133.51 130.03 153.19 C 127.13 155.92 124.18 158.61 121.42 161.50 C 118.92 158.75 116.22 156.20 113.48 153.70 C 113.54 133.45 113.45 113.19 113.54 92.93 Z" />
<path fill="#26a59a" opacity="1.00" d=" M 191.76 91.79 C 193.91 89.67 196.12 87.62 198.29 85.51 C 201.04 88.22 203.88 90.84 206.72 93.45 C 206.78 113.48 206.76 133.51 206.66 153.54 C 203.85 156.16 201.10 158.86 198.11 161.28 C 195.58 158.75 193.02 156.23 190.48 153.71 C 190.50 134.13 190.52 114.56 190.48 94.99 C 190.30 93.73 190.73 92.56 191.76 91.79 Z" />
<path fill="#26a59a" opacity="1.00" d=" M 225.75 93.00 C 228.41 90.48 231.01 87.90 233.54 85.25 C 236.30 88.11 239.17 90.87 242.23 93.43 C 242.26 109.22 242.25 125.02 242.22 140.81 C 239.21 143.37 236.33 146.07 233.43 148.75 C 230.97 146.07 228.38 143.50 225.75 140.99 C 225.75 124.99 225.75 109.00 225.75 93.00 Z" />
<path fill="#26a59a" opacity="1.00" d=" M 326.51 93.03 C 329.24 90.53 331.92 87.97 334.48 85.28 C 337.10 88.38 340.84 90.54 342.83 94.13 C 343.13 113.81 342.91 133.51 343.03 153.20 C 340.14 155.89 337.25 158.57 334.61 161.50 C 331.86 158.79 328.92 156.27 326.52 153.23 C 326.54 133.17 326.47 113.10 326.51 93.03 Z" />
<path fill="#26a59a" opacity="1.00" d=" M 403.30 93.28 C 405.65 90.48 408.40 88.05 411.06 85.54 C 413.93 88.19 416.82 90.84 419.73 93.46 C 419.78 113.49 419.75 133.53 419.65 153.57 C 416.78 156.16 413.92 158.75 410.97 161.25 C 408.46 158.62 405.90 156.03 403.26 153.54 C 403.17 133.45 403.30 113.36 403.30 93.28 Z" />
<path fill="#26a59a" opacity="1.00" d=" M 550.50 93.02 C 553.20 90.51 555.93 88.02 558.52 85.38 C 561.11 88.46 564.74 90.68 566.91 94.05 C 567.11 109.59 566.96 125.14 566.98 140.69 C 563.98 143.15 561.21 145.86 558.49 148.62 C 555.92 145.97 553.22 143.47 550.50 140.99 C 550.50 125.00 550.50 109.01 550.50 93.02 Z" />
<path fill="#26a59a" opacity="1.00" d=" M 627.30 93.27 C 629.64 90.46 632.40 88.06 635.04 85.54 C 637.92 88.19 640.80 90.84 643.72 93.45 C 643.75 109.15 643.75 124.86 643.71 140.57 C 640.77 143.15 637.91 145.81 635.04 148.46 C 632.38 145.96 629.64 143.53 627.29 140.72 C 627.22 124.91 627.24 109.09 627.30 93.27 Z" />
<path fill="#26a59a" opacity="1.00" d=" M 12.89 152.50 C 15.39 149.88 17.89 147.25 20.28 144.52 C 38.75 144.47 57.22 144.51 75.69 144.50 C 78.24 147.22 80.83 149.89 83.50 152.49 C 80.67 155.12 78.10 158.00 75.67 161.00 C 57.46 161.00 39.25 160.99 21.04 161.00 C 18.31 158.18 15.59 155.35 12.89 152.50 Z" />
<path fill="#26a59a" opacity="1.00" d=" M 236.48 152.47 C 239.10 149.86 241.70 147.23 244.22 144.52 C 262.58 144.46 280.94 144.53 299.30 144.49 C 301.91 147.14 304.46 149.84 307.07 152.50 C 304.41 155.31 301.78 158.15 299.17 161.01 C 281.07 160.99 262.96 161.01 244.85 161.00 C 242.08 158.14 239.27 155.31 236.48 152.47 Z" />
<path fill="#26a59a" opacity="1.00" d=" M 561.36 152.48 C 563.87 149.87 566.29 147.20 568.69 144.49 C 587.03 144.51 605.38 144.49 623.72 144.51 C 626.39 147.21 629.11 149.86 631.85 152.50 C 629.15 155.31 626.45 158.14 623.81 161.00 C 605.83 161.01 587.85 160.97 569.87 161.03 C 566.79 158.41 564.29 155.23 561.36 152.48 Z" />
<path fill="#26a59a" opacity="1.00" d=" M 662.16 152.51 C 664.68 149.84 667.21 147.17 669.72 144.49 C 691.72 144.51 713.72 144.50 735.72 144.50 C 738.32 147.22 741.00 149.86 743.68 152.52 C 741.01 155.31 738.39 158.14 735.80 161.00 C 713.87 161.00 691.94 161.00 670.01 161.00 C 667.41 158.16 664.79 155.32 662.16 152.51 Z" />
</g>
</svg>
